# File created by Blade
# Date/Time:  Wed Jan 21 14:28:11 2015
# Frame Rate: 120.000 fps
#------------------------------------------------------
:FULLY-SPECIFIED
:DEGREES
574
root 18.690241 35.485159 -21.299384 -171.219754 -2.857996 -178.825514
Spine -17.836278 -0.631618 1.218658
Head 9.476435 -1.058231 -1.231332
LeftShoulder -13.083852 -37.992353 24.178455
LeftArm 5.158528 7.970011 -3.263581
LeftForeArm 20.315957 0.000000 -2.152603
LeftHand -7.956340 -0.000000 -7.781895
LeftHandThumb1 -26.253704 0.000000 33.147579
RightShoulder -12.099393 1.151812 -14.175803
RightArm 7.990301 34.985512 5.206676
RightForeArm -44.247458 0.000000 4.288434
RightHand -6.117693 -0.000000 15.034820
RightHandThumb1 -24.326973 -0.000000 -32.862282
LeftUpLeg -0.367572 8.523075 1.881871
LeftLeg -6.934152 -0.000000 0.000000
LeftFoot -19.921614 27.344489 -12.175654
LeftToeBase 27.215001 -0.000000 -0.000000
RightUpLeg -1.876941 -12.670688 -0.158422
RightLeg -3.706435 -0.000000 0.000000
RightFoot -19.995977 -22.056494 16.382401
RightToeBase 25.478644 -0.000000 -0.000000
575
root 18.690456 35.484541 -21.306871 -171.239617 -2.917771 -178.823997
Spine -17.843050 -0.628399 1.212832
Head 9.463750 -1.100671 -1.227456
LeftShoulder -13.021882 -38.005254 24.149633
LeftArm 5.247326 8.074933 -3.283079
LeftForeArm 20.216280 -0.000000 -2.131906
LeftHand -7.993430 -0.000000 -7.711320
LeftHandThumb1 -26.253704 0.000000 33.147579
RightShoulder -12.099911 1.120132 -14.188120
RightArm 8.045649 35.020457 5.237015
RightForeArm -44.236036 -0.000000 4.283716
RightHand -6.176351 -0.000000 14.964540
RightHandThumb1 -24.326973 -0.000000 -32.862282
LeftUpLeg -0.343702 8.488470 1.894054
LeftLeg -6.936582 -0.000000 0.000000
LeftFoot -19.913341 27.327161 -12.163583
LeftToeBase 27.218782 -0.000000 -0.000000
RightUpLeg -1.836946 -12.711474 -0.156271
RightLeg -3.702644 -0.000000 0.000000
RightFoot -20.017676 -22.060796 16.422865
RightToeBase 25.384921 -0.000000 -0.000000
576
root 18.691291 35.483853 -21.313232 -171.253019 -2.972232 -178.825138
Spine -17.851170 -0.619806 1.194957
Head 9.435885 -1.147806 -1.204805
LeftShoulder -12.966390 -38.037053 24.150609
LeftArm 5.327240 8.203320 -3.318727
LeftForeArm 20.128540 0.000000 -2.124895
LeftHand -7.931334 -0.000000 -7.663026
LeftHandThumb1 -26.253704 0.000000 33.147579
RightShoulder -12.163322 1.000303 -14.180863
RightArm 8.219987 34.938811 5.309123
RightForeArm -43.958872 -0.000000 4.248122
RightHand -6.469564 0.000000 14.932520
RightHandThumb1 -24.326973 -0.000000 -32.862282
LeftUpLeg -0.328780 8.458337 1.902643
LeftLeg -6.937219 -0.000000 0.000000
LeftFoot -19.927223 27.318711 -12.170082
LeftToeBase 27.189957 -0.000000 -0.000000
RightUpLeg -1.808465 -12.744522 -0.154230
RightLeg -3.697344 -0.000000 0.000000
RightFoot -20.037393 -22.076507 16.430091
RightToeBase 25.373779 -0.000000 -0.000000
577
root 18.691529 35.482734 -21.320280 -171.262082 -3.027365 -178.828440
Spine -17.866538 -0.620351 1.175942
Head 9.418957 -1.197509 -1.173838
LeftShoulder -12.935742 -38.037073 24.154595
LeftArm 5.445103 8.285652 -3.350434
LeftForeArm 20.097149 0.000000 -2.119091
LeftHand -7.890072 -0.000000 -7.589954
LeftHandThumb1 -26.253704 0.000000 33.147579
RightShoulder -12.168485 0.961328 -14.175705
RightArm 8.268495 34.857696 5.282715
RightForeArm -43.804708 -0.000000 4.204017
RightHand -6.276484 -0.000000 14.943174
RightHandThumb1 -24.326973 -0.000000 -32.862282
LeftUpLeg -0.314022 8.449848 1.905035
LeftLeg -6.945422 -0.000000 0.000000
LeftFoot -19.926968 27.284623 -12.156288
LeftToeBase 27.225195 -0.000000 -0.000000
RightUpLeg -1.778109 -12.737709 -0.157889
RightLeg -3.699138 -0.000000 0.000000
RightFoot -20.070752 -22.139893 16.439887
RightToeBase 25.387753 -0.000000 -0.000000
